<svg preserveAspectRatio="none" height="832" width="1248" viewBox="0 0 2048 1365" style="display: block;" xmlns="http://www.w3.org/2000/svg" version="1.1">
<path d="M 0 0 L 2048 0 L 2048 1365 L 0 1365 L 0 0 z" fill="rgb(203,197,184)" transform="translate(0,0)"></path>
<path d="M 718.907 64.1115 L 735.074 64.2649 L 735.006 313.866 C 771.526 314.709 810.538 313.917 847.379 314.073 L 847.153 330.198 L 735.077 330.57 L 734.969 652.433 C 734.726 713.273 734.801 774.113 735.196 834.952 C 770.393 835.294 816.244 833.489 850.223 835.908 L 839.379 850.959 C 812.015 851.952 778.972 851.223 751.284 851.272 L 568.561 851.239 L 438.116 851.27 C 415.192 851.322 382.959 852.186 360.602 850.873 C 358.696 848.681 359.331 848.93 359.105 845.25 L 359.014 64.8783 C 364.526 64.6082 370.628 64.6806 376.191 64.6277 L 376.077 314.046 L 718.85 313.972 C 718.448 231.803 717.642 146.082 718.907 64.1115 z" fill="rgb(48,48,48)" transform="translate(0,0)"></path>
<path d="M 381.065 330.516 L 718.874 330.513 L 718.777 666.661 C 718.802 682.478 720.297 827.637 717.79 834.32 L 715.25 835.092 C 680.404 835.674 644.011 835.049 608.959 835.065 L 376.25 834.998 C 375.742 801.548 376.265 766.574 376.251 732.997 L 376.262 513.993 L 376.354 392.072 C 376.345 374.671 375.21 348.591 376.363 332.112 C 378.033 330.224 377.665 330.84 381.065 330.516 z" fill="rgb(203,197,184)" transform="translate(0,0)"></path>
<path d="M 462.374 485.249 C 467.022 485.073 472.24 485.167 476.94 485.148 C 477.17 493.081 476.025 524.499 477.756 529.685 L 481.782 531.264 C 484.147 535.186 482.549 572.642 482.396 579.449 C 485.918 579.569 488.196 579.384 491.474 580.71 C 492.608 587.06 492.109 616.496 492.112 625.004 L 492.136 721.182 C 503.339 721.994 521.957 721.377 533.86 721.326 C 534.147 752.278 534.161 783.233 533.903 814.185 C 504.656 814.925 472.415 814.296 442.939 814.313 C 442.513 814.092 441.338 812.846 441.335 812.586 C 440.941 780.198 441.199 747.548 441.034 715.15 L 397.39 714.958 C 397.132 694.129 397.015 673.299 397.037 652.468 L 410.419 652.209 C 410.275 643.902 410.563 635.41 410.738 627.092 L 423.648 626.647 C 423.506 618.951 422.343 584.379 424.047 578.91 C 426.503 578.585 427.418 578.68 429.41 577.174 C 431.345 568.946 425.292 559.838 432.102 554.516 C 435.472 553.8 435.976 553.664 439.326 554.363 C 441.967 558.855 438.569 574.665 442.395 577.778 C 445.494 577.882 447.615 578.26 450.419 577.015 C 451.704 571.069 451.218 539.576 451.237 531.065 C 455.246 531.098 456.969 531.205 460.992 530.322 C 463.367 527.107 462.004 492.8 462.374 485.249 z" fill="rgb(48,48,48)" transform="translate(0,0)"></path>
<path d="M 635.875 631.726 C 647.002 631.234 661.335 631.681 672.707 631.702 C 672.503 646.727 672.422 661.755 672.464 676.782 L 656.985 676.852 L 657.113 814.246 L 545.144 814.176 L 545.048 796.121 L 544.948 721.176 C 560.982 721.231 577.016 721.199 593.05 721.08 C 610.356 736.492 627.415 752.179 644.22 768.136 L 644.025 754.877 L 635.917 746.374 L 635.875 631.726 z" fill="rgb(48,48,48)" transform="translate(0,0)"></path>
<path d="M 590.242 543.453 L 616.472 543.232 C 616.957 559.744 615.35 583.453 616.932 598.39 C 620.033 601.581 620.768 598.153 625.016 601.046 C 626.113 612.169 625.688 634.637 625.762 646.458 L 625.866 736.396 C 620.152 733.187 596.714 711.696 590.048 705.733 C 590.066 652.078 589.377 596.981 590.242 543.453 z" fill="rgb(48,48,48)" transform="translate(0,0)"></path>
<path d="M 672.112 695.987 L 698.262 695.95 L 698.259 814.422 L 672.387 814.209 C 671.708 802.051 672.206 786.043 672.197 773.612 L 672.112 695.987 z" fill="rgb(48,48,48)" transform="translate(0,0)"></path>
<path d="M 437.769 363.194 C 458.49 362.001 474.795 375.632 475.126 397.048 C 475.171 399.997 474.987 403.009 474.854 405.958 L 446.604 405.995 L 408.048 406.021 C 407.891 383.257 413.755 368.492 437.769 363.194 z" fill="rgb(48,48,48)" transform="translate(0,0)"></path>
<path d="M 470.916 357.293 C 494.329 357.99 503.068 370.022 505.864 392.085 C 506.7 391.6 507.544 391.13 508.397 390.675 C 516.155 386.55 523.189 385.102 531.781 387.716 C 538.158 389.656 549.699 398.212 546.369 405.588 L 543.25 406.005 L 479.075 405.892 C 479.43 403.385 479.637 400.86 479.695 398.33 C 479.957 387.492 477.018 377.084 468.424 369.822 C 464.866 366.814 462.043 365.701 458.615 362.126 L 459.052 360.608 C 463.054 358.473 466.468 358.11 470.916 357.293 z" fill="rgb(48,48,48)" transform="translate(0,0)"></path>
<path d="M 407.038 751.171 C 418.73 750.091 422.053 752.063 429.013 761.133 C 429.095 771.025 429.965 805.22 428.576 813.062 C 426.243 814.754 422.98 814.308 419.882 814.327 L 396.235 814.346 C 395.96 798.183 394.524 778.319 397.033 762.275 C 397.923 756.583 402.332 753.82 407.038 751.171 z" fill="rgb(48,48,48)" transform="translate(0,0)"></path>
<path d="M 528.589 680.094 C 534.492 679.739 553.946 679.04 552.817 688.898 C 550.39 692.319 545.787 693.281 542.074 695.506 C 545.749 697.911 550.084 699.841 551.687 703.329 C 550.526 705.629 551.111 704.861 548.187 706.106 C 541.738 706.201 535.05 706.334 528.606 706.259 C 524.528 706.212 524.392 705.532 522.118 703.123 L 522.216 701.435 C 524.388 698.626 528.196 698.05 531.817 695.734 C 526.84 692.921 523.4 692.18 522.793 686.301 C 524.203 682.832 525.592 682.188 528.589 680.094 z" fill="rgb(48,48,48)" transform="translate(0,0)"></path>
<path d="M 528.844 686.366 C 533.469 685.829 541.458 684.407 545.376 687 L 545.63 689.147 C 540.349 690.188 531.079 692.301 528.844 686.366 z" fill="rgb(203,197,184)" transform="translate(0,0)"></path>
<path d="M 524.216 643.971 C 530.734 643.777 548.769 641.748 552.031 647.092 C 551.561 651.962 544.83 657.704 541.192 661.372 C 543.88 664.008 547.128 661.401 550.941 664.345 C 551.203 667.663 551.211 666.518 549.557 669.856 C 541.871 669.975 527.19 671.683 522.347 667.316 C 521.596 660.925 530.754 664.599 533.602 660.677 C 531.13 654.173 519.552 656.707 524.216 643.971 z" fill="rgb(48,48,48)" transform="translate(0,0)"></path>
<path d="M 527.258 650.108 C 531.671 649.891 541.913 648.81 545.368 650.954 L 544.008 652.941 C 541.263 654.878 540.892 655.27 537.765 656.305 C 533.542 655.961 530.743 652.914 527.258 650.108 z" fill="rgb(203,197,184)" transform="translate(0,0)"></path>
<path d="M 542.725 613.457 C 546.995 613.195 548.736 613.341 551.78 616.437 L 551.046 617.988 C 545.437 621.746 534.68 616.175 529.776 621.647 L 530.08 623.513 C 537.006 632.3 547.716 617.354 551.895 632.017 C 547.072 633.742 527.055 634.292 522.825 630.499 C 522.085 625.188 524.44 626.079 524.56 624.402 C 524.809 620.933 523.709 618.503 525.526 614.383 C 527.532 613.094 539.019 613.609 542.725 613.457 z" fill="rgb(48,48,48)" transform="translate(0,0)"></path>
<path d="M 529.621 546.24 C 538.047 545.846 542.791 545.486 550.049 549.865 C 552.181 553.103 551.844 551.639 551.436 555.339 C 549.06 559.116 548.271 559.512 544.628 561.863 C 536.851 562.129 527.391 562.055 522.463 554.609 C 521.186 548.828 524.464 547.918 529.621 546.24 z" fill="rgb(48,48,48)" transform="translate(0,0)"></path>
<path d="M 528.222 552.354 C 532.758 551.923 541.142 550.814 545.065 552.988 L 545.41 554.952 C 540.043 556.414 530.953 558.212 528.222 552.354 z" fill="rgb(203,197,184)" transform="translate(0,0)"></path>
<path d="M 524.046 529.112 C 531.05 529.588 546.513 527.352 550.602 531.952 C 551.675 535.261 550.856 538.264 550.345 541.799 C 543.361 539.442 547.92 537.416 542.73 536.786 C 537.355 536.133 528.575 538.859 523.898 535.456 C 522.671 532.048 523.004 533.222 524.046 529.112 z" fill="rgb(48,48,48)" transform="translate(0,0)"></path>
<path d="M 523.845 580.745 C 533.094 582.658 544.274 580.878 549.903 584.154 C 550.915 587.286 550.702 586.126 549.349 589.879 C 541.936 589.781 528.72 592.442 523.607 587.749 C 522.604 584.522 522.835 584.011 523.845 580.745 z" fill="rgb(48,48,48)" transform="translate(0,0)"></path>
<path d="M 528.682 564.254 C 535.615 564.021 546.403 562.664 551.276 568.111 L 551.123 570.485 C 548.985 571.819 549.662 571.407 546.753 571.4 C 539.992 571.263 527.213 573.072 522.682 570.048 L 522.37 568.077 C 525.43 564.614 523.868 565.699 528.682 564.254 z" fill="rgb(48,48,48)" transform="translate(0,0)"></path>
<path d="M 524.308 593.052 C 532.47 594.954 545.817 592.485 550.356 596.844 C 550.273 599.796 550.695 598.435 548.76 600.961 C 541.636 600.806 528.185 602.763 523.186 598.882 C 522.331 595.538 522.378 596.867 524.308 593.052 z" fill="rgb(48,48,48)" transform="translate(0,0)"></path>
<path d="M 523.717 510.251 C 530.343 510.186 545.316 508.331 550.223 511.411 C 551.152 514.198 551.007 513.095 549.755 516.416 C 543.238 516.696 526.871 518.814 523.077 513.555 L 523.717 510.251 z" fill="rgb(48,48,48)" transform="translate(0,0)"></path>
<path d="M 895.731 67.6569 C 965.974 66.5564 1040.02 67.3016 1110.38 67.4859 L 1182.36 67.4816 C 1193.8 67.4746 1210.1 66.9627 1220.91 67.7491 L 1220.92 647.865 L 1138.14 648.07 C 1126.1 648.077 1107.1 648.656 1095.87 647.809 L 928.049 647.809 C 917.158 648.183 906.645 648.005 895.768 647.846 L 895.522 255.896 L 895.422 138.092 C 895.393 115.75 894.899 89.8499 895.731 67.6569 z" fill="rgb(154,101,81)" transform="translate(0,0)"></path>
<path d="M 1005.57 316.024 C 1017.55 315.998 1029.95 315.796 1041.89 315.965 C 1041.98 360.385 1041.53 405.746 1042.09 450.083 L 1059.04 450.245 L 1058.97 594.985 L 1083.83 594.958 C 1083.82 572.21 1083.28 547.288 1083.87 524.728 C 1095.24 524.826 1106.95 524.777 1118.28 525.076 C 1118.43 544.256 1118.04 565.378 1118.7 584.345 L 1146.74 584.074 L 1146.73 626.238 L 1173.53 626.038 L 1173.25 647.378 C 1154.23 647.431 1112.54 645.984 1095.87 647.809 L 928.049 647.809 C 921.143 647.448 915.647 647.298 908.705 647.367 L 908.881 502.551 C 908.866 491.188 907.984 445.769 909.457 436.832 C 914.446 433.927 916.337 438.001 919.244 434.239 C 919.606 429.438 918.965 418.81 920.531 416.218 C 923.299 415.852 924.646 415.829 927.449 415.828 C 931.497 409.969 925.549 408.225 933.484 406.322 C 936.025 399.24 930.703 389.365 936.246 383.207 C 939.158 381.909 939.338 382.036 942.606 382.578 C 950.308 388.511 943.957 398.505 946.844 406.023 L 950.276 407.304 C 952.245 412.226 949.724 412.622 952.609 415.63 C 956.081 416.092 957.338 415.925 960.053 418.282 C 962.6 424.005 958.143 432.537 961.25 435.687 C 962.902 437.362 966.722 434.582 969.732 437.596 C 971.433 475.493 969.819 522.885 969.864 561.571 L 984.233 561.395 L 984.059 333.002 L 1005.54 332.763 L 1005.57 316.024 z" fill="rgb(48,48,48)" transform="translate(0,0)"></path>
<path d="M 1252.82 67.9088 C 1284.8 66.891 1318.85 67.1062 1350.92 67.5682 C 1427.96 68.6779 1506.06 65.8 1582.94 67.4234 C 1583.3 176.837 1584.19 289.602 1582.91 398.849 L 1582.9 412.826 C 1582.92 417.791 1582.99 422.812 1582.96 427.772 L 1583.01 442.109 L 1583.01 459.346 L 1582.99 473.066 L 1582.97 488.046 L 1583.02 503.061 L 1582.99 518.364 L 1582.86 532.086 L 1582.96 549.303 L 1582.99 563.148 L 1583.06 578.612 L 1582.96 591.871 L 1583.01 608.709 C 1583.09 612.067 1583.71 616.604 1582.09 619.214 C 1580.99 619.328 1580.3 619.549 1579.34 619.292 C 1568.5 620.556 1538.01 619.865 1526.07 619.857 C 1489.14 619.815 1452.21 619.574 1415.29 619.136 C 1413.94 527.983 1415.26 433.901 1414.99 342.451 L 1393.76 342.207 L 1393.68 320.028 L 1375.41 320.175 L 1375.62 293.316 L 1345.99 293.268 L 1345.97 320.285 L 1325.05 320.091 L 1325.07 342.105 L 1311.84 342.131 L 1312.06 619.155 L 1254.04 619.351 C 1252.38 615.89 1252.89 611.299 1252.92 607.274 L 1252.85 591.157 L 1252.98 575.33 L 1253.05 558.1 L 1253 543.834 L 1253.01 526.095 L 1253.02 511.698 C 1252.86 505.77 1252.9 499.575 1252.84 493.621 L 1253 478.887 C 1252.9 472.911 1253.04 466.742 1253.11 460.75 L 1253.05 447.13 L 1252.92 430.07 L 1253.02 416.231 L 1253.04 398.478 C 1252.8 387.154 1252.74 375.826 1252.87 364.499 C 1251.73 266.22 1252.75 166.285 1252.82 67.9088 z" fill="rgb(154,101,81)" transform="translate(0,0)"></path>
<path d="M 1252.98 575.33 C 1266.84 564.925 1285.04 549.3 1299.61 541.433 C 1315.7 548.67 1258.82 585.668 1252.85 591.157 L 1252.98 575.33 z" fill="rgb(48,48,48)" transform="translate(0,0)"></path>
<path d="M 1253.02 511.698 C 1261.7 504.413 1288.96 481.028 1298.17 478.458 L 1300.34 478.805 C 1305.75 491.662 1263.22 517.46 1253.01 526.095 L 1253.02 511.698 z" fill="rgb(48,48,48)" transform="translate(0,0)"></path>
<path d="M 1253 478.887 C 1262.21 471.362 1289.35 446.843 1299.77 446.298 L 1301.08 447.109 C 1301.94 458.636 1262.98 486.244 1252.84 493.621 L 1253 478.887 z" fill="rgb(48,48,48)" transform="translate(0,0)"></path>
<path d="M 1253 543.834 C 1260.94 537.314 1292.44 509.737 1300.12 511.989 C 1301.67 515.772 1301.03 519.222 1298.17 522.145 C 1284.83 535.732 1267.57 545.855 1253.05 558.1 L 1253 543.834 z" fill="rgb(48,48,48)" transform="translate(0,0)"></path>
<path d="M 1253.05 447.13 C 1260.93 439.785 1286.83 415.1 1296.43 414.139 L 1298.1 415.079 C 1300.3 423.298 1289.59 431.404 1283.93 436.068 C 1279.49 439.738 1256.28 460.302 1253.11 460.75 L 1253.05 447.13 z" fill="rgb(48,48,48)" transform="translate(0,0)"></path>
<path d="M 1252.92 607.274 C 1261.26 600.26 1290.06 577.932 1298.93 573.882 L 1300.71 574.106 C 1302.85 579.379 1299.92 584.663 1296.01 588.115 C 1283.07 599.525 1268.19 609.538 1254.04 619.351 C 1252.38 615.89 1252.89 611.299 1252.92 607.274 z" fill="rgb(48,48,48)" transform="translate(0,0)"></path>
<path d="M 1526.29 495.954 C 1552.85 495.325 1562.17 502.626 1582.99 518.364 L 1582.86 532.086 C 1581.85 531.925 1528.86 498.322 1526.29 495.954 z" fill="rgb(48,48,48)" transform="translate(0,0)"></path>
<path d="M 1583.02 503.061 C 1566.77 491.035 1552.36 480.597 1534.27 471.418 C 1531.52 470.024 1529.17 469.242 1528.45 466.859 C 1540.57 456.934 1573.3 480.582 1582.97 488.046 L 1583.02 503.061 z" fill="rgb(48,48,48)" transform="translate(0,0)"></path>
<path d="M 1582.99 563.148 C 1568.21 550.257 1548.91 540.478 1532.08 530.891 C 1530.64 530.07 1530.27 529.48 1529.56 528.066 L 1530.2 526.524 C 1544.71 520.448 1572.88 539.992 1582.96 549.303 L 1582.99 563.148 z" fill="rgb(48,48,48)" transform="translate(0,0)"></path>
<path d="M 1579.34 619.292 C 1570.83 613.841 1562.12 608.719 1553.22 603.938 C 1547.18 600.734 1534.6 594.609 1529.5 590.96 L 1529.24 589.111 C 1532.38 586.73 1540.04 588.45 1543.93 588.818 C 1559.25 590.265 1571.34 599.554 1583.01 608.709 C 1583.09 612.067 1583.71 616.604 1582.09 619.214 C 1580.99 619.328 1580.3 619.549 1579.34 619.292 z" fill="rgb(48,48,48)" transform="translate(0,0)"></path>
<path d="M 1582.96 591.871 C 1579.09 590.933 1563.44 578.339 1558.42 575.454 C 1552.65 572.135 1532.25 563.012 1530.64 557.704 L 1532.26 556.632 C 1553.02 555.623 1567.57 566.881 1583.06 578.612 L 1582.96 591.871 z" fill="rgb(48,48,48)" transform="translate(0,0)"></path>
<path d="M 1582.99 473.066 C 1576.92 467.709 1532.92 438.925 1532.11 437.339 C 1533.15 436.521 1533.32 436.308 1534.73 436.176 C 1554.36 434.333 1569.48 447.131 1583.01 459.346 L 1582.99 473.066 z" fill="rgb(48,48,48)" transform="translate(0,0)"></path>
<path d="M 1583.01 442.109 C 1577.09 437.443 1535.93 410.041 1535.65 409.223 C 1536.67 408.396 1537.15 408.056 1538.56 407.982 C 1556.47 407.042 1570.18 417.095 1582.96 427.772 L 1583.01 442.109 z" fill="rgb(48,48,48)" transform="translate(0,0)"></path>
<path d="M 1253.02 416.231 C 1258.26 410.452 1276.53 387.704 1284.12 385.601 C 1284.97 385.365 1286.11 386.424 1287.06 387.054 C 1290.21 398.653 1261.97 422.707 1252.92 430.07 L 1253.02 416.231 z" fill="rgb(48,48,48)" transform="translate(0,0)"></path>
<path d="M 1549.48 373.151 C 1565.83 378.638 1573.29 384.114 1582.91 398.849 L 1582.9 412.826 C 1575.11 411.094 1553.66 380.995 1549.48 373.151 z" fill="rgb(48,48,48)" transform="translate(0,0)"></path>
<path d="M 1252.87 364.499 C 1257.68 363.477 1266.95 361.054 1271.44 361.581 C 1272.77 367.491 1256.92 393.407 1253.04 398.478 C 1252.8 387.154 1252.74 375.826 1252.87 364.499 z" fill="rgb(48,48,48)" transform="translate(0,0)"></path>
<path d="M 1429.35 535.601 C 1442.57 512.939 1471.13 504.463 1494.57 516.245 C 1518.01 528.028 1528.25 556.007 1517.95 580.136 C 1507.65 604.265 1480.36 616.225 1455.64 607.447 C 1430.92 598.669 1417.28 572.18 1424.5 546.958 C 1425.64 542.985 1427.27 539.17 1429.35 535.601 z" fill="rgb(203,197,184)" transform="translate(0,0)"></path>
<path d="M 1431.3 536.308 C 1432.57 535.718 1468.38 533.625 1471.81 533.715 C 1474.35 533.802 1476.87 534.303 1479.25 535.197 C 1485.97 537.675 1491.36 542.823 1494.14 549.418 C 1502.94 570.213 1481.45 591.342 1461.84 582.908 C 1460.63 582.381 1459.43 581.822 1458.25 581.232 C 1449.03 582.422 1441.54 583.281 1432.13 582.759 C 1427.26 570.256 1426.59 562.839 1427.82 549.381 L 1427.73 548.761 L 1424.5 546.958 C 1425.64 542.985 1427.27 539.17 1429.35 535.601 L 1431.3 536.308 z" fill="rgb(48,48,48)" transform="translate(0,0)"></path>
<path d="M 1424.5 546.958 C 1425.64 542.985 1427.27 539.17 1429.35 535.601 L 1431.3 536.308 L 1430.99 540.976 C 1435.34 545.056 1443.76 543.075 1450.41 543.349 C 1449.18 545.605 1446.35 550.74 1445.81 553.041 C 1444.36 559.265 1448.3 566.904 1444.71 572.143 C 1441.63 572.861 1442.56 573.078 1439.85 572.242 C 1434.03 560.159 1448.73 547.221 1427.82 549.381 L 1427.73 548.761 L 1424.5 546.958 z" fill="rgb(203,197,184)" transform="translate(0,0)"></path>
<path d="M 245.036 68.4845 L 342.923 68.6301 L 343.075 555.564 L 343.076 741 C 343.124 776.083 343.923 814.167 342.95 848.983 C 327.133 849.457 311.31 849.725 295.486 849.788 C 294.156 875.737 295.067 911.548 295.13 938.058 L 294.942 976.96 L 270.268 976.893 C 268.824 971.651 267.319 964.068 266.424 958.643 C 260.024 919.835 247.396 878.814 242.323 840.144 L 234.014 835.141 L 233.978 69.0117 L 245.036 68.4845 z" fill="rgb(154,101,81)" transform="translate(0,0)"></path>
<path d="M 261.115 532.843 L 326.566 532.769 C 327.343 548.919 326.895 568.917 326.911 585.364 L 326.951 678.445 L 261.077 678.151 L 261.115 532.843 z" fill="rgb(203,197,184)" transform="translate(0,0)"></path>
<path d="M 261.197 380.762 L 326.916 380.705 L 326.916 496.041 L 260.971 496.176 L 261.197 380.762 z" fill="rgb(203,197,184)" transform="translate(0,0)"></path>
<path d="M 1644.02 365.38 C 1676.54 364.289 1714.23 365.197 1747.16 365.169 L 1951.84 365.163 L 1951.93 550.908 L 1951.85 796.365 C 1922.68 797.111 1878.78 797.864 1850.03 796.28 C 1895.11 775.204 1919.04 728.117 1896.56 681.219 C 1886.69 660.711 1868.89 645.112 1847.27 638.019 C 1820.38 628.985 1800.88 634.464 1776.04 643.438 C 1770.7 634.785 1756.91 614.28 1757.28 604.98 C 1757.67 595.21 1789.28 596.31 1791.74 586.209 C 1793.62 581.638 1786.28 572.188 1781.43 571.965 C 1765.87 571.251 1744.11 566.46 1729.87 573.607 C 1726.17 575.466 1721.23 582.21 1723.6 586.657 C 1731.99 589.937 1738.13 582.815 1741.44 592.185 C 1743.52 598.049 1745.51 603.541 1744.15 609.759 C 1742.79 611.625 1741.3 613.251 1738.75 613.299 C 1732.7 613.415 1721.64 615.733 1716.47 616.182 C 1705.64 617.124 1653.89 627.192 1646.35 626.422 C 1642.2 621.461 1643.75 611.01 1644.03 604.274 C 1653.55 603.35 1664.02 604.682 1661.18 591.921 C 1657 590.603 1648.75 590.765 1644.07 590.655 L 1644.02 365.38 z" fill="rgb(48,48,48)" transform="translate(0,0)"></path>
<path d="M 1644.02 365.38 C 1676.54 364.289 1714.23 365.197 1747.16 365.169 L 1951.84 365.163 L 1951.93 550.908 L 1924.21 550.93 L 1924.22 439.117 L 1890.04 439.108 L 1890.02 380.558 C 1877.37 380.156 1862.7 380.054 1849.98 380.705 L 1849.98 420.987 L 1829.04 420.915 L 1829.06 533.988 L 1816.93 534.014 C 1816.83 527.42 1817.16 507.023 1815.97 501.758 C 1811.43 498.184 1810.39 502.372 1807.04 498.556 C 1806.96 495.708 1807.22 489.085 1806.04 487.091 C 1800.33 485.974 1798.13 488.247 1794.37 486.019 C 1793.6 483.71 1793.56 483.266 1793.23 480.823 C 1790.59 479.39 1787.34 479.131 1784.71 480.829 C 1782.11 489.391 1778.14 487.841 1769.83 487.805 C 1769.71 497.44 1769.5 507.071 1769.83 516.701 L 1747.68 516.934 L 1747.94 541.144 C 1726.46 542.258 1703.55 542.094 1681.94 542.096 L 1681.94 591.634 C 1676.44 591.697 1666.36 591.526 1661.18 591.921 C 1657 590.603 1648.75 590.765 1644.07 590.655 L 1644.02 365.38 z" fill="rgb(154,101,81)" transform="translate(0,0)"></path>
<path d="M 1599.12 65.9988 C 1604.15 65.7761 1609.84 66.0014 1614.94 66.0913 C 1615.99 92.3309 1615.12 124.986 1615.12 151.635 L 1615.13 313.993 L 1985.45 314.053 C 1985.69 320.417 1985.22 328.854 1985.05 335.366 C 1975.16 335.5 1965.28 335.478 1955.37 335.495 C 1842.53 335.686 1729.67 335.289 1616.84 335.808 C 1616.24 336.239 1615.63 336.67 1615.02 337.101 L 1615.28 680.387 C 1615.4 728.855 1614.54 780.174 1615.79 828.375 C 1652.85 829.269 1691.89 828.7 1729.13 828.752 L 1985.99 828.978 L 1985.97 853.073 C 1948.03 854.505 1901.31 853.286 1862.79 853.28 L 1630.46 853.134 C 1620.62 836.259 1592.15 821.722 1573.99 815.761 C 1565.32 812.917 1553.57 811.011 1545.91 806.067 C 1535.49 799.347 1547.68 761.13 1544.04 746.803 C 1542.96 742.524 1540.43 738.824 1536.48 736.724 C 1517.22 726.488 1350.02 737.279 1319.15 739.424 C 1291.56 741.34 1262.76 745.503 1235.2 745.203 C 1209.76 744.926 1183.71 740.867 1158.23 739.397 C 1102.08 735.85 1045.85 733.937 989.589 733.661 C 974.234 733.485 950.953 731.945 936.266 735.376 C 929.856 736.873 927.164 742.547 924.406 748.01 C 924.642 758.027 931.965 805.456 921.027 808.267 C 900.665 813.5 882.401 818.466 862.982 827.082 C 864.539 754.117 863.688 677.75 863.758 604.587 L 864.057 68.5115 C 866.255 66.1179 867.176 66.7696 871.146 66.3398 C 874.379 66.2054 875.749 65.7945 878.4 67.3452 C 880.994 74.0534 879.61 194.394 879.623 210.294 L 879.493 695.041 L 1598.73 695.127 C 1600.55 623.795 1598.99 546.347 1599.04 474.574 L 1599.12 65.9988 z" fill="rgb(154,101,81)" transform="translate(0,0)"></path>
<path d="M 424.75 1222.95 C 477.402 1222.26 531.477 1222.94 584.311 1222.93 L 904.047 1222.91 L 1901 1222.77 C 1913.08 1232.29 1927.97 1245.91 1939.89 1256.18 L 1901.25 1256.09 L 385.829 1256 C 398.552 1244.7 411.529 1233.68 424.75 1222.95 z" fill="rgb(48,48,48)" transform="translate(0,0)"></path>
<path d="M 149.97 68.4224 C 172.285 68.2696 194.6 68.2413 216.916 68.3374 L 217.038 539.35 L 217.023 728.626 C 217.012 760.567 217.052 792.699 216.865 824.645 C 216.84 828.988 217.19 829.951 214.779 832.675 C 205.934 834.488 195.909 834.047 186.839 833.97 C 186.129 826.16 186.503 811.908 186.487 803.477 L 186.3 747.685 C 175.151 737.129 160.929 727.468 148.883 717.042 L 148.929 225.709 C 148.934 211.494 147.725 74.1083 149.97 68.4224 z" fill="rgb(48,48,48)" transform="translate(0,0)"></path>
<path d="M 1631.5 69.0492 C 1639.11 68.6874 1647.54 68.7281 1655.18 68.8175 C 1708.39 69.4393 1762.15 67.6001 1815.3 68.973 C 1817.2 127.038 1814.47 186.382 1815.66 244.55 C 1816.02 262.096 1815.93 280.836 1815.18 298.336 C 1796.49 299.833 1753.71 298.801 1732.61 298.635 C 1704.09 298.41 1658.64 300.183 1631.24 298.01 C 1629.61 230.757 1631.91 162.686 1630.98 95.3537 C 1630.86 86.829 1630.77 77.4719 1631.5 69.0492 z" fill="rgb(154,101,81)" transform="translate(0,0)"></path>
<path d="M 365.652 1272.78 C 385.415 1273.69 411.091 1273.03 431.176 1273.04 L 554.394 1273.02 L 926.2 1273 L 1958.93 1272.84 C 1967.95 1279.52 1981.1 1291.55 1989.97 1299.16 L 1959.54 1299.21 L 334.048 1299.22 C 344.383 1290.17 354.921 1281.36 365.652 1272.78 z" fill="rgb(48,48,48)" transform="translate(0,0)"></path>
<path d="M 1830.73 69.0296 C 1878.22 67.3613 1933.48 68.699 1981.5 68.7532 L 1981.72 214.341 C 1981.72 224.568 1983.08 293.928 1979.75 298.49 C 1954.79 299.773 1922.18 297.734 1896.61 298.617 C 1886.63 298.962 1838.56 298.975 1832.27 297.547 C 1828.41 290.532 1830.42 94.0449 1830.73 69.0296 z" fill="rgb(154,101,81)" transform="translate(0,0)"></path>
<path d="M 494.911 1169.49 L 933.642 1169.33 C 1004.19 1169.34 1082.52 1167.77 1152.48 1169.81 C 1151.29 1181.05 1148.99 1194.41 1147.37 1205.83 L 1101.75 1205.9 L 444.497 1206.04 C 456.486 1195.59 474.452 1178.9 487.982 1170.18 C 488.945 1169.56 493.49 1169.49 494.911 1169.49 z" fill="rgb(48,48,48)" transform="translate(0,0)"></path>
<path d="M 941.752 744.138 C 960.352 743.036 985.607 744.401 1004.44 744.933 C 1040.18 745.699 1075.9 747.089 1111.59 749.104 C 1144.01 750.954 1177.61 752.746 1209.97 755.922 C 1212.43 756.167 1223.34 758.378 1224.7 760.552 C 1231.07 770.762 1228.37 795.283 1227.96 806.647 L 1220.94 812.589 C 1221.34 816.924 1222.25 820.914 1220.48 824.72 C 1214.41 829.733 1213.44 825.862 1205.2 825.399 C 1203.99 828.918 1204.73 827.444 1204.73 829.903 C 1204.72 834.441 1211.45 837.338 1211.76 839.286 C 1212.88 846.173 1210.97 847.684 1214.92 854.263 C 1212.04 861.319 1210.79 864.368 1209.44 871.795 C 1180.43 870.729 1151.55 870.929 1122.51 870.303 C 1119.1 864.136 1114.03 858.164 1109.98 850.976 C 1103.75 835.453 1099.33 817.877 1099.27 801.102 C 1099.11 754.337 1096.31 765.003 1058.74 770.975 C 1049.73 772.417 1040.56 772.622 1031.5 771.582 C 1012.94 769.536 995.584 764.795 977.491 762.192 C 941.844 757.066 971.955 791.908 978.113 801.871 C 980.969 806.507 983.258 811.468 984.931 816.649 C 988.377 827.23 992.511 851.736 988.018 861.484 C 984.572 868.959 954.513 874.257 947.029 869.403 C 944.034 863.445 947.42 846.319 946.339 837.875 C 944.861 826.325 940.856 821.292 937.904 810.971 C 937.261 803.777 937.951 796.733 937.69 789.404 C 937.22 776.232 932.886 762.181 935.609 749.201 C 936.154 746.601 939.527 745.249 941.752 744.138 z" fill="rgb(48,48,48)" transform="translate(0,0)"></path>
<path d="M 1504.62 742.442 C 1511.11 741.953 1525.06 741.104 1529.9 745.446 C 1532.54 747.816 1534.35 751.798 1534.17 755.205 C 1533.59 766.435 1531.95 777.67 1531.35 789.006 C 1531.17 792.299 1530.96 808.96 1530.62 810.187 C 1528.27 818.685 1524.85 823.464 1522.75 834.064 C 1520.43 845.75 1525.5 861.453 1519.66 870.246 C 1518.65 871.771 1514.45 872.666 1512.56 872.347 C 1502.8 870.693 1487.28 868.458 1480.56 860.588 C 1475.78 854.994 1475.14 849.471 1475.36 842.377 C 1476.32 811.331 1503.04 796.277 1509.71 769.971 C 1510.19 768.071 1508.05 766.202 1506.86 765.176 C 1501.72 764.6 1483.96 767.178 1477.37 767.845 C 1461.65 769.438 1449.52 769.776 1433.41 768.691 C 1411.4 767.252 1387.81 753.969 1365.79 756.399 C 1350.4 758.097 1364.34 788.638 1365.65 797.55 C 1367.95 813.184 1366.1 818.722 1357.5 831.584 C 1347.56 844.846 1337.03 857.649 1325.93 869.952 L 1268.33 871.86 C 1248.49 872.463 1247.82 868.431 1247.95 848.977 C 1259.42 839.763 1263.53 834.711 1272.76 823.534 L 1265.95 815.755 C 1259.75 821.516 1250.18 829.964 1243.18 834.346 C 1243.08 817.217 1239.61 774.652 1244.74 761.9 C 1247.66 754.635 1328.02 751.274 1338.18 750.642 C 1393.62 747.209 1449.11 744.475 1504.62 742.442 z" fill="rgb(48,48,48)" transform="translate(0,0)"></path>
<path d="M 422.829 869.488 L 703.962 869.521 C 744.745 869.251 785.53 869.331 826.312 869.762 C 826.53 882.047 826.483 894.336 826.171 906.619 C 792.852 908.084 750.507 906.885 716.5 906.882 L 307.978 906.931 L 308.037 869.956 L 422.829 869.488 z" fill="rgb(48,48,48)" transform="translate(0,0)"></path>
<path d="M 170.877 751.437 C 172.904 751.484 174.181 752.467 175.982 753.473 C 179.789 757.863 178.307 778.204 178.295 784.951 L 178.116 847.316 C 158.197 851.975 131.676 855.169 110.425 859.185 C 99.4762 852.115 83.8752 854.839 86.1212 868.561 C 95.2609 924.401 100.067 984.459 111.405 1039.63 C 107.508 1048.11 103.709 1059.82 100.305 1068.91 L 79.1138 1125.22 C 75.4121 1135 71.5912 1145.82 66.9272 1155.08 C 66.0815 1142.11 66.7735 1121.96 66.8194 1108.52 L 66.9009 1025.41 L 66.871 763.668 C 71.915 762.85 77.1064 762.23 82.1906 761.704 C 111.741 758.642 141.309 754.127 170.877 751.437 z" fill="rgb(48,48,48)" transform="translate(0,0)"></path>
<path d="M 308.463 925.176 C 326.854 924.416 349.302 925.021 367.94 925.018 L 480.05 925.007 L 826.197 924.992 C 826.608 936.997 826.242 949.937 826.113 962.017 L 308.087 962.331 C 308.072 949.97 307.948 937.52 308.463 925.176 z" fill="rgb(48,48,48)" transform="translate(0,0)"></path>
<path d="M 1641.99 870.053 L 1814.98 870.198 C 1815.39 878.492 1815.32 886.572 1815.3 894.87 L 1773.15 895.338 L 1773.2 959.347 L 1773.1 1001.08 C 1730.13 1001.68 1685.08 1001.34 1642.11 1001.06 C 1641.5 957.872 1642.01 913.364 1641.99 870.053 z" fill="rgb(154,101,81)" transform="translate(0,0)"></path>
<path d="M 1468.8 1169.51 C 1507.96 1168.83 1548.68 1169.41 1587.96 1169.38 L 1841.37 1169.39 C 1855.02 1181.77 1869.6 1193.58 1883.46 1205.94 L 1852.5 1205.97 C 1717.77 1206.04 1580.93 1207.31 1446.39 1205.66 L 1441.24 1169.92 C 1450.21 1169.57 1459.78 1169.62 1468.8 1169.51 z" fill="rgb(48,48,48)" transform="translate(0,0)"></path>
<path d="M 918.179 939.508 C 951.849 938.521 991.034 939.456 1025.05 939.464 L 1200.34 939.755 L 1200.23 965.711 C 1192.93 969.793 1185.69 973.972 1178.51 978.249 C 1147.44 996.65 1151.02 994.865 1114.97 994.878 L 1052.83 994.85 L 968.288 994.886 C 958.982 994.888 919.932 997 915.212 990.741 C 910.056 983.903 910.864 950.798 912.294 942.236 C 915.086 939.615 914.022 940.431 918.179 939.508 z" fill="rgb(48,48,48)" transform="translate(0,0)"></path>
<path d="M 70.4205 114.191 C 78.1586 116.135 86.93 120.72 93.9031 124.593 L 93.8167 530 L 93.8388 650.325 C 93.8681 672.068 94.0033 694.028 93.7498 715.779 C 93.7082 719.345 93.6464 720.905 91.7111 723.557 C 83.723 725.146 77.3094 725.721 69.2728 726.114 C 67.9575 708.7 69.0813 677.328 69.0933 658.532 L 69.1147 522.925 L 69.1264 127.725 C 69.1614 123.363 68.7805 118.069 70.4205 114.191 z" fill="rgb(48,48,48)" transform="translate(0,0)"></path>
<path d="M 1454.16 896.202 C 1426.19 893.516 1398.18 891.23 1370.14 889.346 C 1361.64 888.77 1337.3 889.391 1331.85 885.854 C 1331.02 884.637 1329.82 883.152 1330.63 881.536 C 1344.28 854.447 1376.94 836.259 1374.32 801.957 C 1373.67 793.41 1363.19 770.464 1370.02 765.629 C 1383.58 763.546 1419.58 776.051 1438.14 777.987 C 1463.88 780.671 1480.1 773.13 1500.55 773.326 C 1489.31 797.279 1460.6 823.416 1467.92 853.745 C 1471.41 868.223 1503.87 886.493 1477.22 896.228 C 1474.29 895.708 1457.63 896.117 1454.16 896.202 z" fill="rgb(154,101,81)" transform="translate(0,0)"></path>
<path d="M 1353.69 860.098 C 1364.58 859.636 1464.17 871.106 1467.32 873.511 C 1467.85 876.521 1467 877.378 1465.51 880.281 C 1458.02 881.195 1354 868.502 1351.79 866.895 C 1351.18 863.512 1351.88 863.655 1353.69 860.098 z" fill="rgb(48,48,48)" transform="translate(0,0)"></path>
<path d="M 1366.98 845.031 C 1385.14 843.794 1441.91 847.509 1461.18 856.001 C 1462.87 856.746 1463.45 860.938 1463.71 862.992 L 1461.78 864.001 C 1432.17 859.599 1402.78 854.671 1372.86 853.424 C 1370.26 853.316 1365.45 853.214 1363.44 851.876 C 1363.7 848.512 1364.78 848.076 1366.98 845.031 z" fill="rgb(48,48,48)" transform="translate(0,0)"></path>
<path d="M 1384.83 794.239 C 1397.14 794.315 1470.24 795.356 1473.23 805.404 C 1472.49 808.701 1472.04 808.963 1469.83 811.684 C 1452.77 807.698 1437.44 806.648 1420.19 805.311 C 1414.14 804.842 1385.38 804.46 1381.99 803.257 L 1381.36 801.166 C 1382.2 797.573 1382.54 797.164 1384.83 794.239 z" fill="rgb(48,48,48)" transform="translate(0,0)"></path>
<path d="M 1380.52 811.326 C 1393.87 810.534 1459.09 811.265 1465.74 821.961 C 1464.88 826.055 1465.65 824.593 1462.9 827.584 C 1434.73 822.21 1406.99 821.879 1378.71 819.617 C 1377.79 819.543 1377.63 817.911 1377.36 817.044 C 1378.17 813.762 1378.17 813.621 1380.52 811.326 z" fill="rgb(48,48,48)" transform="translate(0,0)"></path>
<path d="M 1373.84 828.253 C 1399.1 827.627 1424.36 829.253 1449.32 833.113 C 1453.81 833.822 1458.94 835.116 1461.68 838.919 C 1461.88 842.809 1462.41 841.798 1460.59 844.442 L 1458.71 844.657 C 1427.97 839.596 1400.92 837.69 1370.04 835.679 L 1369.31 834.597 C 1370.35 831.45 1371.5 830.656 1373.84 828.253 z" fill="rgb(48,48,48)" transform="translate(0,0)"></path>
<path d="M 131.144 131.107 L 132.125 131.396 C 133.678 133.493 133.029 238.874 133.024 249.716 L 132.973 577.592 L 133.04 671.155 C 133.049 681.457 133.724 708.445 132.472 717.111 C 128.207 721.803 117.904 721.649 111.323 722.233 C 109.533 719.979 109.257 718.884 109.225 716.022 C 108.969 693.404 109.105 670.585 109.124 647.977 L 109.203 516.932 L 109.292 134.052 C 119.017 134.454 121.989 134.367 131.144 131.107 z" fill="rgb(48,48,48)" transform="translate(0,0)"></path>
<path d="M 455.363 977.871 C 500.588 976.613 551.898 977.752 597.576 977.757 L 826.18 977.825 C 826.262 989.557 826.232 1001.29 826.088 1013.02 C 767.929 1013.71 708.765 1013.27 650.582 1013.28 L 455.602 1013.2 C 455.206 1001.52 455.348 989.577 455.363 977.871 z" fill="rgb(48,48,48)" transform="translate(0,0)"></path>
<path d="M 1817.66 645.415 C 1828.31 644.981 1841.69 647.945 1851.36 652.279 C 1868.32 659.838 1881.56 673.849 1888.15 691.207 C 1895.02 709.499 1894.28 729.779 1886.09 747.519 C 1877.83 765.22 1862.86 778.903 1844.49 785.544 C 1823.24 793.097 1803.46 789.702 1783.61 780.14 C 1776.86 776.394 1770.76 771.602 1765.51 765.944 C 1759.7 759.587 1749.27 744.366 1749.65 735.328 C 1752.73 732.259 1798.54 724.778 1806.4 723.276 C 1828.49 740.766 1846.83 704.006 1816.37 704.35 C 1809.67 695.507 1788.02 663.625 1783.69 654.249 C 1795.38 648.378 1804.88 646.329 1817.66 645.415 z" fill="rgb(48,48,48)" transform="translate(0,0)"></path>
<path d="M 1361.65 429.183 C 1362.41 429.154 1363.17 429.132 1363.94 429.117 C 1395.78 428.526 1397.79 453.388 1396.3 477.96 C 1395.77 486.707 1396.29 497.556 1396.29 506.47 L 1396.25 618.967 L 1371.5 619.04 L 1336.64 619.097 L 1336.49 511.835 C 1336.45 499.6 1336.54 486.782 1336.37 474.588 C 1336.04 451.232 1336.21 436.343 1361.65 429.183 z" fill="rgb(48,48,48)" transform="translate(0,0)"></path>
<path d="M 969.914 772.044 C 989.356 771.793 1015.51 780.492 1036.49 781.828 C 1056.93 783.13 1070.22 776.21 1087.8 775.607 L 1089.08 775.574 C 1089.26 803.321 1089.35 826.919 1101.14 852.602 C 1104.23 859.338 1115.13 868.601 1112.82 875.603 C 1109.56 877.262 1109.65 876.685 1105.76 876.501 C 1065.23 872.805 1027.27 874.147 986.889 877.858 C 989.657 871.916 995.592 864.667 999.672 859.263 C 1000.98 841.953 996.861 818.544 989.734 802.5 C 985.202 792.297 970.1 778.443 969.914 772.044 z" fill="rgb(154,101,81)" transform="translate(0,0)"></path>
<path d="M 524.11 1139.14 L 940.683 1139.13 L 1075.33 1139.09 C 1102.21 1139.09 1131.22 1138.57 1157.88 1139.68 C 1156.97 1144.3 1156.24 1149.49 1155.47 1154.19 L 1137.85 1154.43 C 1053.38 1155.95 964.894 1154.58 880.213 1154.55 L 505.33 1154.51 L 524.11 1139.14 z" fill="rgb(48,48,48)" transform="translate(0,0)"></path>
<path d="M 960.568 900.425 C 1003.2 897.859 1055.51 900.481 1098.66 902.392 C 1129.05 903.739 1174.13 905.008 1203.43 909.154 C 1202.16 915.886 1201.53 924.961 1200.85 931.937 C 1185.98 932.369 1169.49 932.076 1154.5 932.115 L 1001.65 932.15 C 976.534 932.162 951.353 932.522 926.284 932.082 C 912.354 932.212 905.267 922.018 915.75 911.096 C 924.744 901.725 948.428 901.293 960.568 900.425 z" fill="rgb(48,48,48)" transform="translate(0,0)"></path>
<path d="M 553.91 1112.94 L 1161.28 1113.24 C 1160.23 1117.96 1160.81 1121.79 1158.15 1125.71 C 1154.88 1127.74 1151.57 1127.08 1147.54 1126.93 L 538.074 1126.9 L 553.91 1112.94 z" fill="rgb(48,48,48)" transform="translate(0,0)"></path>
<path d="M 583.425 1086.91 C 602.954 1085.99 629.669 1086.79 649.977 1086.8 L 779.719 1086.85 L 1165.48 1086.96 C 1165.17 1091.34 1164.51 1095.72 1163.92 1100.07 L 1152.25 1100.23 L 747.593 1100.39 L 628.975 1100.32 C 612.721 1100.32 581.789 1099.41 566.634 1101.12 C 572.167 1096.16 577.695 1091.62 583.425 1086.91 z" fill="rgb(48,48,48)" transform="translate(0,0)"></path>
<path d="M 867.047 850.338 C 877.442 849.826 890.341 847.596 898.231 854.584 C 900.881 861.672 901.087 873.746 901.134 881.474 L 901.073 949.103 C 901.061 960.912 901.421 973.179 900.373 984.898 C 899.464 995.063 886.566 994.459 879.5 994.369 C 870.829 994.454 856.527 996.702 849.287 991.433 C 846.638 989.506 846.07 986.041 845.538 983.006 C 842.701 966.807 843.523 867.024 851.672 856.255 C 855.548 851.133 861.192 850.969 867.047 850.338 z" fill="rgb(48,48,48)" transform="translate(0,0)"></path>
<path d="M 1578.74 850.195 C 1587.74 849.988 1598.13 848.984 1606.97 850.688 C 1610.7 851.406 1614.65 852.556 1616.71 855.989 C 1624.22 868.523 1626.92 972.815 1622.76 986.459 C 1621.5 990.599 1617.26 992.737 1613.68 994.518 C 1603.46 994.653 1577.15 997.232 1570.07 989.991 C 1568.86 985.664 1568.32 981.349 1568.11 976.864 C 1567.44 962.822 1566.29 863.016 1569.68 856.424 C 1571.52 852.838 1575.18 851.433 1578.74 850.195 z" fill="rgb(48,48,48)" transform="translate(0,0)"></path>
<path d="M 1830.9 870.217 C 1878.84 868.802 1932.59 870.013 1980.99 870.021 C 1981.08 884.25 1982.17 932.081 1980.62 944.364 C 1974.83 945.917 1964.58 942.33 1958.16 942.202 C 1939.98 941.838 1849.99 946.624 1841.3 941.127 C 1839.95 940.274 1840.25 940.151 1839.96 938.734 C 1843.93 933.765 1861.65 935.587 1868.37 935.586 L 1915.91 935.341 C 1929.25 935.329 1942.82 935.013 1956.18 934.83 L 1938.45 922.169 C 1910.12 921.954 1881.78 921.881 1853.44 921.952 C 1844.64 921.972 1815.66 924.823 1811.59 917.697 C 1815.98 913.43 1844.63 915.05 1852.57 915.047 C 1877.03 915.136 1901.49 915.02 1925.94 914.699 C 1919.18 908.391 1909.02 900.742 1901.58 894.827 C 1877.96 894.972 1854.34 894.987 1830.71 894.874 C 1830.54 886.813 1830.12 878.2 1830.9 870.217 z" fill="rgb(154,101,81)" transform="translate(0,0)"></path>
<path d="M 1248.51 1169.51 C 1293.21 1169.19 1337.91 1169.12 1382.61 1169.31 C 1383.51 1173.74 1383.97 1179.52 1385.42 1183.8 C 1387.78 1190.73 1410.05 1197.59 1409.76 1204.66 C 1405.64 1206.63 1354.05 1205.92 1345.5 1205.91 C 1293.18 1205.96 1234.81 1207.23 1182.86 1205.43 C 1185.28 1194.89 1187.94 1180.29 1189.36 1169.77 L 1248.51 1169.51 z" fill="rgb(48,48,48)" transform="translate(0,0)"></path>
<path d="M 1917.35 976.343 C 1943.6 971.141 1969.12 988.147 1974.42 1014.38 C 1979.72 1040.61 1962.81 1066.19 1936.6 1071.59 C 1910.24 1077.01 1884.5 1059.99 1879.17 1033.62 C 1873.84 1007.25 1890.96 981.572 1917.35 976.343 z" fill="rgb(48,48,48)" transform="translate(0,0)"></path>
<path d="M 1325.02 939.454 C 1357.98 938.597 1391.37 939.699 1424.36 939.154 C 1435.38 938.972 1446.81 939.015 1457.81 939.34 C 1462.19 953.568 1459.95 964.423 1462 978.21 C 1464.33 993.883 1491.41 989.605 1501.33 986.868 C 1515.11 983.068 1529.63 974.278 1536.66 961.504 C 1540.72 954.125 1542.01 933.605 1555.22 940.377 C 1556.93 941.272 1556.78 943.931 1557.05 945.75 C 1557.14 957.297 1557.36 968.827 1557.12 980.349 C 1556.87 991.758 1552.05 994.465 1541.09 994.794 C 1525.11 995.243 1508.06 995.058 1492.19 994.952 C 1458.78 994.731 1435.3 998.855 1405.45 980.787 C 1377.94 964.135 1355.37 960.476 1323.32 959.66 C 1323.18 954.088 1322.23 943.543 1325.02 939.454 z" fill="rgb(48,48,48)" transform="translate(0,0)"></path>
<path d="M 1139.53 1003.2 C 1168.94 1004.46 1200.73 1004 1230.29 1003.99 L 1371.7 1003.94 C 1388.18 1004.02 1404.66 1003.99 1421.14 1003.86 C 1428.57 1003.78 1445.06 1003.08 1451.88 1004.11 C 1455.69 1008.96 1450.57 1014.59 1447.05 1018.13 C 1433.66 1027.6 1414.29 1024.87 1398.21 1024.87 L 1334.49 1024.85 L 1225.03 1024.86 C 1206.26 1024.87 1187.45 1025.02 1168.65 1024.87 C 1159.6 1024.79 1149.64 1023.62 1143.02 1016.54 C 1139.15 1012.39 1139.34 1008.44 1139.53 1003.2 z" fill="rgb(48,48,48)" transform="translate(0,0)"></path>
<path d="M 1372.96 1034.46 C 1385.06 1033.85 1399.22 1034.17 1411.47 1034.16 C 1413.99 1043.91 1416.6 1066.99 1418.12 1077.82 L 1429.94 1161.76 C 1431.09 1169.85 1438.14 1211.33 1437.76 1216.01 L 1424.23 1216.13 C 1423.9 1208.44 1423.36 1203.41 1421.64 1195.96 C 1415.37 1190.03 1404.18 1185 1396.14 1179.69 C 1392.99 1168.57 1370.78 1038.91 1372.96 1034.46 z" fill="rgb(48,48,48)" transform="translate(0,0)"></path>
<path d="M 1454.16 896.202 C 1457.63 896.117 1474.29 895.708 1477.22 896.228 C 1475.31 896.834 1473.52 897.341 1471.67 898.121 C 1488.05 898.012 1527.28 891.639 1543.84 901.413 C 1545.83 902.926 1545.57 906.396 1545.3 908.491 C 1542.42 930.986 1535.3 955.402 1518.09 971.058 C 1507.7 980.508 1482.95 988.46 1470.45 981.198 C 1465.27 974.681 1466.76 943.593 1461.34 930.846 C 1457.34 921.444 1445.87 907.141 1444.42 901.999 C 1445.35 899.346 1445.01 900.197 1447.62 898.212 L 1454.45 897.424 L 1454.16 896.202 z" fill="rgb(48,48,48)" transform="translate(0,0)"></path>
<path d="M 1454.16 896.202 C 1457.63 896.117 1474.29 895.708 1477.22 896.228 C 1475.31 896.834 1473.52 897.341 1471.67 898.121 C 1466.73 899.485 1453.17 898.549 1447.62 898.212 L 1454.45 897.424 L 1454.16 896.202 z" fill="rgb(183,161,153)" transform="translate(0,0)"></path>
<path d="M 900.757 663.473 C 992.397 660.956 1085.86 665.169 1177.64 663.46 C 1191.99 663.192 1206.71 663.397 1221.05 663.828 C 1221.24 667.672 1222.09 676.551 1220.45 680.127 C 1219.86 681.418 1218.58 681.227 1216.75 681.581 C 1203.44 681.771 1189.81 681.653 1176.49 681.503 C 1083.1 680.453 989.28 682.663 895.925 681.125 C 895.593 674.309 893.034 664.593 900.757 663.473 z" fill="rgb(154,101,81)" transform="translate(0,0)"></path>
<path d="M 1253.01 663.941 C 1290.58 662.652 1333.98 663.72 1372.28 663.723 L 1582.88 663.809 C 1583.02 669.71 1582.89 675.284 1582.74 681.169 C 1563.53 681.959 1541.74 681.437 1522.38 681.408 L 1423.51 681.399 C 1369.01 681.367 1306.61 683.019 1252.9 681.145 L 1253.01 663.941 z" fill="rgb(154,101,81)" transform="translate(0,0)"></path>
<path d="M 1438.64 1139.45 C 1480.25 1138.42 1525.29 1139.16 1567.06 1139.15 L 1806.67 1139.15 C 1810.18 1142.16 1820.6 1150.45 1821.89 1153.74 L 1819.25 1154.47 L 1439.21 1154.43 C 1438.65 1150.23 1436.73 1142.11 1438.64 1139.45 z" fill="rgb(48,48,48)" transform="translate(0,0)"></path>
<path d="M 1729.13 737.047 C 1731.1 737.001 1733.04 737.052 1735.02 737.082 C 1737.54 738.775 1739.15 745.078 1740.5 748.253 C 1751.27 773.602 1767.27 785.889 1791.33 796.36 C 1759.2 797.738 1721.73 796.832 1689.32 796.804 L 1644.91 796.818 L 1644.53 777.478 C 1650.27 772.649 1651.67 771.104 1656.04 765.174 C 1661.16 758.238 1663.95 744.491 1670.73 740.499 C 1679.27 739.646 1678.61 746.389 1686.8 751.225 C 1705.52 762.28 1720.83 739.056 1729.13 737.047 z" fill="rgb(48,48,48)" transform="translate(0,0)"></path>
<path d="M 1433.57 1113.29 C 1471.37 1112.16 1513.73 1113.01 1551.87 1113.01 L 1776.89 1112.99 C 1782.17 1117.61 1787.12 1121.94 1792.19 1126.81 C 1752.58 1127.92 1708.23 1127.01 1668.25 1127.01 L 1435.31 1127.14 L 1433.57 1113.29 z" fill="rgb(48,48,48)" transform="translate(0,0)"></path>
<path d="M 1429.61 1086.93 L 1745.05 1086.8 C 1750.29 1091.04 1755.11 1095.5 1760.09 1100.03 C 1750.96 1100.82 1733.11 1100.43 1723.07 1100.47 L 1644.3 1100.4 L 1431.2 1100.15 C 1430.82 1095.95 1430.12 1091.18 1429.61 1086.93 z" fill="rgb(48,48,48)" transform="translate(0,0)"></path>
<path d="M 211.903 847.88 C 215.527 847.731 216.156 848.543 218.598 850.393 C 220.958 855.095 246.106 982.316 244.783 988.343 C 242.462 991.398 240.738 992.42 237.178 990.988 C 235.237 988.919 233.771 985.872 233.219 983.088 C 225.32 943.273 219.115 902.622 210.274 863.021 C 199.222 864.674 128.705 874.684 123.718 877.915 L 123.334 880.324 C 130.726 914.275 135.822 949.514 142.312 983.695 C 143.787 991.464 148.229 1003.41 144.344 1010.43 C 141.147 1012.82 142.62 1012.26 138.784 1012.74 L 136.883 1011.15 C 134.777 1005 127.765 960.866 126.733 952.533 C 123.945 929.999 113.567 887.71 113.555 866.792 C 125.213 858.864 199.564 855.226 211.903 847.88 z" fill="rgb(48,48,48)" transform="translate(0,0)"></path>
<path d="M 1735.07 625.427 L 1739.01 625.413 L 1740.22 626.671 C 1739.54 634.232 1707.51 695.809 1701.85 706.803 L 1689.02 707.652 L 1679.11 690.12 C 1671.36 675.864 1659.09 653.858 1652.98 639.315 C 1668.18 635.131 1718.32 627.165 1735.07 625.427 z" fill="rgb(48,48,48)" transform="translate(0,0)"></path>
<path d="M 1385.64 902.547 C 1401.63 901.789 1417.64 901.935 1433.61 902.984 C 1443.14 912.267 1449.97 919.564 1455.19 931.916 C 1427.78 932.305 1399.72 932.105 1372.26 932.192 C 1357.73 932.065 1340.04 933.513 1325.87 931.438 C 1324.78 931.278 1320.89 926.259 1319.75 924.878 C 1315.18 919.332 1308.07 920.161 1304.17 913.948 C 1303.38 910.996 1303.41 910.647 1304.58 907.824 C 1313.31 903.448 1372.93 902.808 1385.64 902.547 z" fill="rgb(48,48,48)" transform="translate(0,0)"></path>
<path d="M 1232.03 854.668 C 1244.23 860.916 1253.95 962.117 1246.9 976.249 C 1240.98 981.767 1211.36 980.606 1205.86 976.939 C 1202.88 972.719 1208.33 907.582 1209.17 896.756 C 1209.67 888.231 1210.73 880.548 1211.86 872.094 C 1215.25 871.977 1223.95 871.062 1225.07 875.255 C 1228.68 888.849 1222.35 967.66 1227.21 975.008 L 1229.17 974.58 C 1235.65 963.369 1226.19 862.805 1232.03 854.668 z" fill="rgb(48,48,48)" transform="translate(0,0)"></path>
<path d="M 1217.44 881.575 C 1218.28 882.093 1220.02 883.038 1220.04 885.046 C 1220.26 914.395 1219.88 944.598 1218.7 973.907 C 1217.85 975.01 1217.19 975.881 1216.7 976.521 L 1213.92 974.179 C 1211.81 967.302 1215.48 890.087 1217.44 881.575 z" fill="rgb(203,197,184)" transform="translate(0,0)"></path>
<path d="M 1183.14 1034.07 C 1189.82 1034.04 1196.76 1034.3 1203.46 1034.46 C 1198.8 1056.39 1195.16 1080.88 1191.25 1103.14 L 1171.54 1213.76 L 1170.63 1215.51 C 1166.79 1216.6 1159.8 1215.98 1155.52 1215.8 C 1158.62 1203.01 1160.52 1182.6 1162.86 1168.91 C 1170.29 1125.5 1174.41 1076.92 1183.14 1034.07 z" fill="rgb(48,48,48)" transform="translate(0,0)"></path>
<path d="M 864.03 1007.24 C 882.53 1006.46 903.244 1006.91 921.95 1006.92 L 1020.76 1006.99 L 1092.96 1007.01 C 1103.55 1007 1114.4 1006.85 1125.01 1006.83 C 1128.25 1006.82 1128.48 1007.54 1130.12 1009.39 C 1130.7 1012.68 1130.57 1012.82 1129.38 1016.05 L 1127.16 1016.98 C 1105 1018.14 1081.26 1017.66 1058.91 1017.67 L 949.267 1017.71 L 893.894 1017.87 C 885.15 1017.86 866.53 1019.97 861.53 1012.94 C 861.659 1009.2 861.314 1010.6 864.03 1007.24 z" fill="rgb(48,48,48)" transform="translate(0,0)"></path>
<path d="M 1195.35 1139.29 C 1204.15 1139.1 1213.23 1139.05 1222.02 1139.15 C 1273.97 1139.71 1326.37 1138.12 1378.26 1139.5 C 1378.77 1143.18 1380.46 1152.11 1378.65 1154.51 L 1192.53 1154.81 C 1193.5 1149.64 1194.44 1144.47 1195.35 1139.29 z" fill="rgb(48,48,48)" transform="translate(0,0)"></path>
<path d="M 136.011 1047.44 C 147.883 1046.89 285.952 1050.46 289.076 1051.67 C 292.498 1056.74 290.484 1060.76 285.859 1064.04 C 270.383 1063.27 267.447 1067.06 254.922 1066.61 C 215.163 1065.19 174.566 1064.8 134.927 1062.6 C 133.738 1057.51 131.406 1050.48 136.011 1047.44 z" fill="rgb(48,48,48)" transform="translate(0,0)"></path>
<path d="M 1200.25 1113.16 C 1256.6 1112.03 1317.12 1112.9 1373.72 1113.16 C 1374.26 1116.86 1376.06 1124.21 1373.86 1126.99 L 1197.45 1126.88 L 1200.25 1113.16 z" fill="rgb(48,48,48)" transform="translate(0,0)"></path>
<path d="M 116.783 1048.92 C 124.276 1053.75 127.215 1058.15 123.99 1066.85 C 107.272 1111.98 90.3411 1157.21 72.4474 1201.87 C 71.7609 1203.58 67.5557 1205.7 65.9 1206.58 C 61.0129 1205.41 59.1344 1205.01 57.7685 1200.24 C 60.307 1187.35 111.344 1057.04 116.783 1048.92 z" fill="rgb(48,48,48)" transform="translate(0,0)"></path>
<path d="M 97.2654 861.53 C 101.319 862.476 104.314 863.505 105.049 868.057 C 106.792 878.865 108.205 889.725 109.919 900.538 C 114.221 926.967 118.374 953.42 122.379 979.895 C 125.048 997.262 128.4 1017.23 130.522 1034.9 C 130.815 1037.34 127.567 1039.36 125.591 1041.02 C 120.917 1040.96 120.926 1041.08 117.865 1038.83 C 116.383 1034.79 110.222 993.324 109.429 987.019 C 104.531 948.073 96.2436 906.371 92.0808 867.701 C 92.8669 864.552 94.6712 863.626 97.2654 861.53 z" fill="rgb(48,48,48)" transform="translate(0,0)"></path>
<path d="M 274.88 1070.89 C 280.242 1071.04 285.977 1070.81 291.369 1070.69 C 292.495 1101.06 290.798 1134.28 291.35 1164.98 C 291.5 1173.32 291.604 1211.73 290.372 1218.05 C 285.335 1220.88 284.173 1221.57 279.027 1219.54 C 277.346 1217.32 276.196 1216.48 276.175 1213.49 C 275.844 1166.22 273.659 1118.12 274.88 1070.89 z" fill="rgb(48,48,48)" transform="translate(0,0)"></path>
<path d="M 419.312 1028.83 L 421.101 1029.52 C 424.033 1033.62 425.55 1156.1 427.159 1169.68 C 427.54 1172.9 426.451 1174.85 424.612 1177.29 C 421.046 1179.07 420.414 1178.96 416.399 1178.68 C 415.506 1177.67 413.658 1175.54 413.571 1174.12 C 410.761 1127.9 406.197 1080.52 405.748 1034.24 C 410.512 1032.8 414.759 1030.82 419.312 1028.83 z" fill="rgb(48,48,48)" transform="translate(0,0)"></path>
<path d="M 1203.71 1086.76 C 1258.66 1087.43 1314.81 1086.79 1369.87 1086.92 C 1370.62 1092.12 1371.14 1094.9 1370.81 1100.11 C 1317.03 1101.64 1255.66 1100.27 1201.56 1100.16 L 1203.71 1086.76 z" fill="rgb(48,48,48)" transform="translate(0,0)"></path>
<path d="M 119.429 1101.95 C 133.312 1101.44 259.87 1108.72 265.291 1111.75 C 268.532 1116.53 268.154 1121.16 263.342 1124.91 C 215.078 1120.59 161.263 1120.56 114.354 1115.7 C 116.007 1109.53 116.611 1107.64 119.429 1101.95 z" fill="rgb(48,48,48)" transform="translate(0,0)"></path>
<path d="M 1770.49 661.648 L 1772.87 662.299 C 1776.28 665.804 1803.91 707.231 1806.92 712.741 C 1798.62 714.859 1787.27 716.224 1778.77 717.188 C 1770.61 718.291 1753.48 722.104 1747.49 718.539 C 1739 705.482 1761.2 671.181 1770.49 661.648 z" fill="rgb(48,48,48)" transform="translate(0,0)"></path>
<path d="M 911.748 821.409 C 959.473 817.044 926.58 895.403 911.891 893.082 C 910.577 890.741 911.069 882.467 911.099 879.25 C 911.172 871.265 911.889 854.286 909.88 847.137 C 905.91 833.006 877.257 839.627 868.553 835.129 L 868.565 833.615 C 877.984 825.548 899.396 822.852 911.748 821.409 z" fill="rgb(48,48,48)" transform="translate(0,0)"></path>
<path d="M 1276.18 934.074 C 1290.92 934.771 1303.85 934.667 1318.58 934.493 C 1318.63 943.827 1319.21 972.531 1316.82 979.535 C 1305.56 982.666 1279.55 986.887 1276.59 972.566 C 1274.58 962.872 1275.87 944.337 1276.18 934.074 z" fill="rgb(48,48,48)" transform="translate(0,0)"></path>
<path d="M 417.196 1008.98 C 423.617 1012.27 423.271 1020.3 416.438 1023.38 C 399.099 1031.18 381.023 1036.97 362.989 1042.92 C 342.756 1049.56 322.626 1056.51 302.605 1063.77 C 299.765 1063.54 301.085 1063.97 298.606 1062.18 C 297.054 1058.44 297.717 1052.35 297.895 1048.11 L 364.478 1026.41 C 380.68 1021.22 401.689 1015.08 417.196 1008.98 z" fill="rgb(48,48,48)" transform="translate(0,0)"></path>
<path d="M 1548.18 821.196 C 1559.68 820.7 1590.07 825.104 1597.16 834.281 C 1593.87 839.59 1568.32 834.777 1561.63 841.9 C 1556.2 847.676 1557.11 858.349 1557.16 865.75 C 1557.25 871.139 1558.36 890.293 1555.94 893.946 C 1547.89 892.495 1538.93 875.209 1536.86 868.075 C 1531.5 849.563 1524.96 828.747 1548.18 821.196 z" fill="rgb(48,48,48)" transform="translate(0,0)"></path>
<path d="M 265.377 996.215 C 279.381 995.645 294.096 995.962 308.181 995.973 C 338.772 995.996 369.529 995.73 400.082 997.131 C 402.61 997.247 403.306 998.384 404.607 1000.15 C 405.902 1012.47 353.481 1023.47 342.636 1026.67 C 337.009 1028.52 327.791 1032.2 322.282 1030.9 L 321.485 1029.4 C 326.629 1022.13 367.181 1015.6 372.584 1008.57 L 371.614 1007.26 C 353.073 1001.14 271.179 1010.52 261.396 999.85 L 261.762 997.976 L 265.377 996.215 z" fill="rgb(48,48,48)" transform="translate(0,0)"></path>
<path d="M 1461.4 1006.92 L 1564.41 1006.86 C 1576.44 1006.86 1591.28 1006.59 1603.44 1007.28 C 1605.44 1007.39 1606.38 1009.17 1607.24 1010.57 C 1607.04 1013.87 1606.34 1014.28 1604.19 1017.05 C 1597.97 1018.55 1467.22 1017.96 1462.35 1016.45 C 1460.7 1013.61 1461.27 1010.37 1461.4 1006.92 z" fill="rgb(48,48,48)" transform="translate(0,0)"></path>
<path d="M 1754.22 631.522 C 1758.66 635.67 1762.63 643.733 1764.89 649.351 C 1744.94 673.65 1734.9 688.221 1733.76 721.643 C 1731.05 722.559 1726.23 723.282 1723.25 723.825 C 1722.41 723.126 1714.26 713.827 1713.01 712.453 C 1718.75 698.91 1746.64 641.91 1754.22 631.522 z" fill="rgb(48,48,48)" transform="translate(0,0)"></path>
<path d="M 230.571 842.4 C 234.622 842.656 233.64 842.025 236.515 844.088 C 237.835 848.023 242.93 869.137 243.134 872.194 C 244.295 889.515 269.697 981.409 265.678 992.373 C 262.566 992.213 256.467 991.608 256.196 987.84 C 254.899 969.775 226.593 852.27 230.571 842.4 z" fill="rgb(48,48,48)" transform="translate(0,0)"></path>
<path d="M 1841.01 962.385 C 1844.8 964.158 1848.32 967.293 1851.65 969.939 L 1851.89 1048.21 C 1851.93 1062 1852.51 1082.29 1851.28 1095.63 C 1845.86 1093.29 1845.11 1092.53 1840.68 1088.54 C 1840.52 1049.17 1839.26 1001.38 1841.01 962.385 z" fill="rgb(154,101,81)" transform="translate(0,0)"></path>
<path d="M 397.023 1080.13 C 401.932 1081.9 402.259 1085.22 401.333 1089.61 C 397.702 1094.76 374.095 1100.8 366.936 1103.03 C 346.423 1109.46 325.862 1115.73 305.254 1121.85 C 301.862 1121.45 301.486 1120.12 299.996 1117.54 C 299.764 1114.86 300.061 1113.41 301.315 1111.01 C 303.698 1106.46 387.262 1083.06 397.023 1080.13 z" fill="rgb(48,48,48)" transform="translate(0,0)"></path>
<path d="M 1812.34 938.583 C 1815.85 940.764 1818.77 943.499 1821.88 946.216 C 1822.49 987.277 1822.26 1031.1 1821.86 1072.17 C 1817.08 1070.77 1812.24 1068.66 1812.15 1063.11 C 1811.79 1042.23 1811.67 1021.13 1811.89 1000.26 C 1812.12 979.857 1811.31 958.882 1812.34 938.583 z" fill="rgb(154,101,81)" transform="translate(0,0)"></path>
<path d="M 110.107 68.3747 C 117.325 68.128 125.358 68.3166 132.648 68.3423 C 132.963 81.2503 133.403 94.9145 132.986 107.804 C 132.808 113.324 132.254 114.803 128.217 118.259 C 122.481 121.237 116.616 123.995 110.734 119.918 C 108.354 114.994 108.677 73.6497 110.107 68.3747 z" fill="rgb(48,48,48)" transform="translate(0,0)"></path>
<path d="M 148.42 734.406 C 153.968 733.402 162.518 735.629 165.08 740.706 C 161.172 745.37 93.5899 751.275 82.8667 752.678 C 76.7582 753.382 69.1467 755.713 64.6033 751.529 C 63.5934 747.806 63.5255 749.331 64.7848 745.766 C 68.9122 741.9 136.423 735.722 148.42 734.406 z" fill="rgb(48,48,48)" transform="translate(0,0)"></path>
<path d="M 1791.24 922.479 C 1793.23 923.069 1795.11 924.526 1796.56 925.995 C 1799.76 929.237 1798.42 1041.04 1797.94 1053.43 C 1794.61 1051.28 1793.94 1050.63 1791.18 1047.76 C 1788.81 1041.27 1790.58 936.328 1791.24 922.479 z" fill="rgb(154,101,81)" transform="translate(0,0)"></path>
<path d="M 1895.08 1086.98 C 1914.58 1086.39 1936.35 1086.78 1955.96 1086.96 C 1956.46 1093.15 1956.57 1095.63 1956.04 1101.77 C 1938.13 1102.96 1913.17 1102.39 1894.9 1102.05 L 1895.08 1086.98 z" fill="rgb(48,48,48)" transform="translate(0,0)"></path>
<path d="M 135.905 1072.45 C 151.918 1071.78 165.544 1072.41 181.467 1073.17 C 180.251 1077.1 178.623 1080.38 176.892 1084.1 L 160.39 1088.02 C 152.153 1089.72 130.251 1097.75 124.155 1093.82 C 121.404 1086.81 130.142 1076.2 135.905 1072.45 z" fill="rgb(48,48,48)" transform="translate(0,0)"></path>
<path d="M 73.4906 68.4775 C 79.9929 68.3299 86.8786 68.6269 93.4092 68.7961 C 93.7955 74.5872 94.8793 105.756 92.7722 109.066 L 90.4668 109.093 C 82.4413 105.943 76.5923 103.507 68.8904 99.6657 C 68.887 93.0147 67.4535 73.6619 70.1954 69.1353 L 73.4906 68.4775 z" fill="rgb(48,48,48)" transform="translate(0,0)"></path>
<path d="M 1868.71 956.098 C 1881.13 955.454 1975.51 954.034 1980.34 957.361 C 1981.45 960.521 1981.06 959.611 1979.75 963.591 C 1976.07 963.883 1960.43 964.33 1957.42 964.012 C 1944.96 962.694 1875.7 967.149 1868.68 961.554 C 1867.44 958.238 1867.51 959.693 1868.71 956.098 z" fill="rgb(154,101,81)" transform="translate(0,0)"></path>
<path d="M 792.711 541.263 C 801.504 539.439 810.12 545.056 812 553.837 C 813.879 562.618 808.318 571.269 799.549 573.206 C 790.701 575.159 781.953 569.536 780.056 560.675 C 778.159 551.814 783.838 543.103 792.711 541.263 z" fill="rgb(48,48,48)" transform="translate(0,0)"></path>
<path d="M 119.528 1124.19 C 120.676 1124.04 121.827 1123.91 122.98 1123.81 C 128.625 1123.3 148.012 1122.41 152.083 1125.77 L 152.041 1127.69 C 147.654 1133.39 131.788 1139.47 124.497 1142.69 C 118.086 1145.8 106.443 1153.68 100.56 1151.98 C 98.4073 1146.9 104.688 1135.75 107.005 1130.69 C 110.39 1128.47 115.758 1126.03 119.528 1124.19 z" fill="rgb(48,48,48)" transform="translate(0,0)"></path>
<path d="M 151.743 1036.51 C 192.45 1035.21 236.031 1037.92 276.95 1037.98 C 278.965 1037.98 279.478 1039.18 280.313 1040.64 C 278.725 1043.81 279.77 1042.81 276.249 1044.25 C 247.804 1043.88 219.361 1043.33 190.922 1042.6 C 182.424 1042.43 153.736 1042.31 146.915 1040.8 L 146.28 1039.48 C 149.2 1036.57 147.749 1037.35 151.743 1036.51 z" fill="rgb(48,48,48)" transform="translate(0,0)"></path>
<path d="M 845.174 577.778 L 846.654 578.267 C 847.904 582.062 847.273 587.067 847.061 591.233 C 837.949 600.42 813.784 619.869 802.632 627.209 L 801.396 626.138 C 799.761 622.432 800.361 618.054 800.548 613.945 C 812.299 603.017 832.155 587.207 845.174 577.778 z" fill="rgb(48,48,48)" transform="translate(0,0)"></path>
<path d="M 744.042 576.279 C 751.363 579.259 783.703 607.257 790.169 613.434 C 790.434 617.29 790.129 622.772 790.018 626.758 C 780.763 623.93 752.577 598.364 744.185 590.792 C 743.967 586.215 744.063 580.922 744.042 576.279 z" fill="rgb(48,48,48)" transform="translate(0,0)"></path>
<path d="M 744.37 676.754 C 752.166 680.195 782.9 705.623 790.069 712.4 C 790.104 716.67 789.82 721.474 789.658 725.788 C 780.669 723.448 751.473 697.264 744.161 689.909 C 743.844 685.142 744.103 681.508 744.37 676.754 z" fill="rgb(48,48,48)" transform="translate(0,0)"></path>
<path d="M 744.066 743.157 C 750.97 745.487 781.95 770.44 788.319 777.08 C 791.413 780.305 790.355 787.335 790.079 791.909 C 782.126 789.52 754.788 766.594 747.708 759.56 C 742.816 754.699 743.899 749.94 744.066 743.157 z" fill="rgb(48,48,48)" transform="translate(0,0)"></path>
<path d="M 744.165 643.351 C 751.026 646.61 783.909 672.888 790.21 678.902 C 790.149 683.453 789.855 688.2 789.637 692.763 C 782.139 690.199 751.058 664.162 744.447 657.198 C 744.02 652.962 744.163 647.693 744.165 643.351 z" fill="rgb(48,48,48)" transform="translate(0,0)"></path>
<path d="M 845.589 743.792 C 847.92 746.836 847.054 753.388 846.933 757.47 C 836.216 767.406 815.214 783.947 802.52 791.887 C 794.79 780.781 809.837 770.666 817.298 764.719 C 826.425 757.444 836.07 750.527 845.589 743.792 z" fill="rgb(48,48,48)" transform="translate(0,0)"></path>
<path d="M 845.759 643.927 C 847.976 646.253 847.084 654.274 846.967 657.635 C 834.133 668.975 816.271 682.892 802.287 692.11 C 800.303 689.479 800.88 682.342 800.893 678.655 C 808.989 670.899 836.717 649.617 845.759 643.927 z" fill="rgb(48,48,48)" transform="translate(0,0)"></path>
<path d="M 744.078 709.504 C 752.837 713.875 782.887 738.266 790.042 745.596 C 790.104 749.995 789.911 754.873 789.829 759.313 C 780.717 754.98 751.702 730.711 744.324 723.088 C 743.844 718.465 744.008 714.142 744.078 709.504 z" fill="rgb(48,48,48)" transform="translate(0,0)"></path>
<path d="M 846.002 676.985 C 848.01 679.093 847.117 687.095 846.993 690.261 C 838.823 698.677 812.878 719.285 802.521 725.512 C 800.031 722.845 800.879 715.587 800.986 711.839 C 810.736 702.999 834.968 684.377 846.002 676.985 z" fill="rgb(48,48,48)" transform="translate(0,0)"></path>
<path d="M 845.901 610.891 L 846.714 611.689 C 847.938 615.666 847.472 620.257 847.374 624.518 C 839.212 632.183 811.673 653.726 802.427 659.167 C 799.922 656.364 800.873 650.172 801.051 646.233 C 814.859 633.861 830.949 621.951 845.901 610.891 z" fill="rgb(48,48,48)" transform="translate(0,0)"></path>
<path d="M 845.41 776.829 L 846.515 777.88 C 847.702 781.659 847.048 786.303 846.819 790.393 C 837.821 798.424 812.113 819.309 802.642 824.116 C 795.586 813.113 808.39 804.438 816.088 798.513 C 825.64 791.162 835.548 783.744 845.41 776.829 z" fill="rgb(48,48,48)" transform="translate(0,0)"></path>
<path d="M 744.644 775.637 C 751.712 779.001 781.679 803.11 788.343 810.031 C 791.207 813.006 789.955 819.622 789.472 823.753 C 780.794 821.303 751.042 796.149 744.281 789.161 C 744.049 784.275 744.325 780.525 744.644 775.637 z" fill="rgb(48,48,48)" transform="translate(0,0)"></path>
<path d="M 845.269 710.785 L 846.632 711.28 C 847.808 714.626 847.184 719.693 847.019 723.432 C 831.166 738.263 821.071 745.6 803.589 758.166 L 801.561 757.451 C 794.283 743.826 834.99 718.262 845.269 710.785 z" fill="rgb(48,48,48)" transform="translate(0,0)"></path>
<path d="M 744.213 610.243 C 752.422 613.403 782.003 638.75 790.051 645.627 L 789.675 658.428 C 782.412 657.56 750.663 629.685 744.302 623.699 C 744.062 619.745 744.215 614.32 744.213 610.243 z" fill="rgb(48,48,48)" transform="translate(0,0)"></path>
<path d="M 1336.6 973.409 C 1339.86 974.237 1340.27 974.849 1342.99 977.032 C 1345.87 986.636 1323.43 991.663 1316.93 992.247 C 1295.72 994.151 1272.56 995.402 1253.53 984.936 L 1251.68 982.737 C 1250.93 979.263 1250.24 977.246 1253.74 975.616 C 1264.5 982.82 1265.65 984.862 1279.18 985.474 C 1295.64 986.22 1328.32 991.29 1336.6 973.409 z" fill="rgb(48,48,48)" transform="translate(0,0)"></path>
<path d="M 1281.14 906.435 C 1284.32 906.062 1284.45 906.015 1287.44 906.976 C 1291.49 914.646 1277.21 921.878 1271.92 924.576 C 1270.98 926.699 1270.1 928.432 1269.02 930.492 C 1265.94 932.722 1262.88 932.154 1258.89 932.11 C 1256.39 931.996 1256.53 932.105 1254.57 930.569 C 1252.21 925.353 1252.41 915.862 1252.12 909.708 C 1261.7 907.301 1271.32 907.016 1281.14 906.435 z" fill="rgb(48,48,48)" transform="translate(0,0)"></path>
<path d="M 1644.28 651.681 C 1648.95 655.057 1677.52 708.953 1678.75 714.645 C 1676.13 714.975 1668.52 716.273 1667.2 713.317 C 1660.4 698.149 1655.05 684.814 1644.34 671.844 C 1644.07 665.374 1644.25 658.207 1644.28 651.681 z" fill="rgb(48,48,48)" transform="translate(0,0)"></path>
<path d="M 1569.79 1022.43 C 1575.05 1022.21 1580.8 1022.45 1586.1 1022.56 C 1591.66 1033.33 1595.83 1038.22 1585.38 1046.98 C 1582.61 1047.11 1578.02 1047.19 1575.66 1045.68 C 1569.87 1041.99 1561.79 1029.77 1566.04 1023.15 L 1569.79 1022.43 z" fill="rgb(48,48,48)" transform="translate(0,0)"></path>
<path d="M 225.73 1128.17 C 230.383 1128.75 235.452 1128.74 238.381 1132.33 C 237.718 1139.13 228.884 1158.53 225.943 1165.39 C 220.78 1166.96 218.047 1167.22 215.362 1162.49 C 214.675 1154.29 222.517 1136.9 225.73 1128.17 z" fill="rgb(48,48,48)" transform="translate(0,0)"></path>
<path d="M 887.515 1022.46 C 893.081 1022.37 899.105 1022.77 904.7 1023.02 C 904.077 1025.52 903.429 1028.02 902.754 1030.5 C 900.466 1038.86 899.035 1042.14 891.468 1046.47 C 870.727 1048.78 876.104 1024.71 887.515 1022.46 z" fill="rgb(48,48,48)" transform="translate(0,0)"></path>
<path d="M 778.608 575.647 C 787.043 576.608 810.447 574.659 812.884 580.2 C 812.388 584 811.248 585.332 809.285 588.601 C 797.025 600.586 779.512 593.862 778.608 575.647 z" fill="rgb(48,48,48)" transform="translate(0,0)"></path>
<path d="M 245.334 1076.14 L 257.801 1079.21 C 255.453 1086.12 252.811 1094.71 248.612 1100.57 C 243.012 1100.73 241.677 1100.86 238.807 1096.34 C 238.073 1089.3 242.224 1082.61 245.334 1076.14 z" fill="rgb(48,48,48)" transform="translate(0,0)"></path>
<path d="M 1256.64 939.423 C 1261.23 939.265 1266.26 939.329 1270.89 939.293 C 1270.98 946.397 1270.9 952.077 1270.55 959.205 L 1256.46 959.145 C 1256.23 954.54 1255.35 943.335 1256.64 939.423 z" fill="rgb(48,48,48)" transform="translate(0,0)"></path>
<path d="M 1301.63 921.971 C 1305.27 924.589 1308.01 920.882 1313.46 924.271 C 1313.04 928.358 1313.78 927.414 1311.36 929.427 C 1305.63 930.851 1286.91 932.099 1284.61 925.858 C 1286.91 923.533 1287.09 924.247 1291.09 924.029 L 1292.39 922.291 C 1295.12 922.136 1299 921.792 1301.63 921.971 z" fill="rgb(48,48,48)" transform="translate(0,0)"></path>
<path d="M 1301.63 921.971 C 1305.27 924.589 1308.01 920.882 1313.46 924.271 C 1307.75 924.675 1296.32 925.567 1291.09 924.029 L 1292.39 922.291 C 1295.12 922.136 1299 921.792 1301.63 921.971 z" fill="rgb(203,197,184)" transform="translate(0,0)"></path>
<path d="M 1552.02 906.851 C 1559.18 913.366 1560.47 923.564 1552.85 930.638 C 1550.99 931.109 1550.87 930.977 1548.93 930.798 C 1546.58 926.4 1549.17 910.69 1552.02 906.851 z" fill="rgb(48,48,48)" transform="translate(0,0)"></path>
<path d="M 1292.39 922.291 C 1292.52 917.377 1292.03 903.972 1296.16 900.935 C 1298.95 901.425 1297.79 900.789 1299.69 903.057 C 1300.82 911.494 1299.3 913.002 1301.63 921.971 C 1299 921.792 1295.12 922.136 1292.39 922.291 z" fill="rgb(48,48,48)" transform="translate(0,0)"></path>
<path d="M 1644.55 740.692 C 1648.54 740.818 1649.91 740.395 1652.03 743.862 C 1652.12 748.024 1649.97 751.325 1648.08 755.19 L 1646.29 756.639 L 1644.7 756.259 C 1643.49 752.383 1644.29 745.064 1644.55 740.692 z" fill="rgb(48,48,48)" transform="translate(0,0)"></path>
<path d="M 1644.86 695.615 C 1649.32 699.006 1651.76 707.822 1652.87 713.091 C 1648.35 712.966 1648.93 713.612 1645.43 711.521 C 1643.42 707.557 1644.6 700.541 1644.86 695.615 z" fill="rgb(48,48,48)" transform="translate(0,0)"></path>
</svg>